<?xml version="1.0" standalone="no"?>
<!DOCTYPE svg PUBLIC "-//W3C//DTD SVG 1.1//EN" "http://www.w3.org/Graphics/SVG/1.1/DTD/svg11.dtd">
<svg xmlns="http://www.w3.org/2000/svg" xmlns:xlink="http://www.w3.org/1999/xlink" version="1.1" x="0px" y="0px" viewBox="0 0 286.1 108.7" style="enable-background:new 0 0 286.1 108.7;" xml:space="preserve" width="286.1000061035156" height="108.69999694824219">
<style type="text/css">
	.st0{fill:url(#SVGID_1_);}
	.st1{fill:#FFFFFF;}
</style>
<g id="Capa_1">
</g>
<g id="Capa_2">
	<g>
		<linearGradient id="SVGID_1_" gradientUnits="userSpaceOnUse" x1="0" y1="54.3342" x2="286.0699" y2="54.3342">
			<stop offset="0" style="stop-color:#0033CC"/>
			<stop offset="0.9994" style="stop-color:#00CCCC"/>
		</linearGradient>
		<path class="st0" d="M176.5,0l0.1,108.7l-67.1,0V0H176.5z M182.3,15.6l0,77.5l67.1,0l-0.1-77.5H182.3z M0,31.2l0,47.3l31.2,0V31.2    H0z M254.9,31.2l0,47.3l31.2,0l0-47.4H254.9z M103.7,15.6H36.7v77.5h67.1l-0.1-0.1V15.6z"/>
		<g>
			<g>
				<path class="st1" d="M56.2,31.2h12c3.8,0,6.7,0.3,8.6,0.9c2,0.6,3.5,1.8,4.7,3.6c1.2,1.8,1.8,4.7,1.8,8.7c0,2.7-0.4,4.6-1.3,5.7      c-0.8,1.1-2.5,1.9-5,2.5c2.8,0.6,4.7,1.7,5.7,3.1c1,1.5,1.5,3.7,1.5,6.7v4.3c0,3.1-0.4,5.5-1.1,7c-0.7,1.5-1.9,2.5-3.4,3.1      c-1.6,0.6-4.8,0.8-9.6,0.8H56.2V31.2z M68.2,39.1v10.3c0.5,0,0.9,0,1.2,0c1.2,0,1.9-0.3,2.3-0.9c0.3-0.6,0.5-2.2,0.5-5      c0-1.5-0.1-2.5-0.4-3.1c-0.3-0.6-0.6-0.9-1-1.1C70.3,39.2,69.5,39.1,68.2,39.1z M68.2,56.6v13c1.7-0.1,2.8-0.3,3.3-0.8      c0.5-0.5,0.7-1.7,0.7-3.5v-4.3c0-2-0.2-3.2-0.6-3.6C71.1,56.9,70,56.7,68.2,56.6z"/>
			</g>
			<g>
				<path class="st1" d="M155.5,31.2v9.3h-7.2v37.1h-12.1V40.4h-7.1v-9.3H155.5z"/>
			</g>
			<g>
				<path class="st1" d="M227.2,45.2H216v-3.4c0-1.6-0.1-2.6-0.4-3.1c-0.3-0.4-0.8-0.7-1.4-0.7c-0.7,0-1.3,0.3-1.6,0.9      c-0.4,0.6-0.6,1.5-0.6,2.7c0,1.5,0.2,2.7,0.6,3.5c0.4,0.8,1.5,1.7,3.4,2.8c5.4,3.2,8.7,5.8,10.1,7.8c1.4,2,2.1,5.3,2.1,9.9      c0,3.3-0.4,5.7-1.2,7.3c-0.8,1.6-2.3,2.9-4.5,3.9c-2.2,1.1-4.8,1.6-7.7,1.6c-3.2,0-6-0.6-8.3-1.8c-2.3-1.2-3.8-2.8-4.5-4.7      c-0.7-1.9-1.1-4.6-1.1-8v-3h11.2v5.6c0,1.7,0.2,2.9,0.5,3.4c0.3,0.5,0.9,0.7,1.7,0.7s1.4-0.3,1.8-0.9c0.4-0.6,0.6-1.6,0.6-2.8      c0-2.7-0.4-4.5-1.1-5.4c-0.8-0.8-2.6-2.2-5.6-4.2c-3-2-5-3.4-6-4.3c-1-0.9-1.8-2.1-2.4-3.7c-0.6-1.6-1-3.6-1-6.1      c0-3.6,0.5-6.1,1.4-7.8c0.9-1.6,2.4-2.9,4.4-3.9c2-0.9,4.5-1.4,7.3-1.4c3.1,0,5.8,0.5,8,1.5c2.2,1,3.7,2.3,4.4,3.8      c0.7,1.5,1.1,4.1,1.1,7.8V45.2z"/>
			</g>
		</g>
	</g>
</g>
</svg>